# xmcd CD database file
#
# Track frame offsets:
#	150
#	14900
#	31238
#	44270
#	57770
#	68915
#	83545
#	95343
#	110883
#	125101
#	135248
#	147915
#	164360
#	181318
#	194975
#	220597
#	243403
#	269985
#	288145
#
# Disc length: 4098 seconds
#
# Revision: 1
# Processed by: cddbd v1.5.2PL0 Copyright (c) Steve Scherf et al.
# Submitted via: CDex 1.70beta2
#
DISCID=23100013
DTITLE=Billie Holiday  - The Ultimate Jazz Archive Set 42
DYEAR=2005
DGENRE=Jazz Vocal
TTITLE0=I Can't Face The Music
TTITLE1=Lover Come Back To Me
TTITLE2=Yesterdays
TTITLE3=How Deep Is The Ocean
TTITLE4=I Cried For You
TTITLE5=What A Little Moonlight Can Do
TTITLE6=Love Me Or Leave Me
TTITLE7=Stormy Blues
TTITLE8=Willow Weep For Me
TTITLE9=Too Marvelous For Words
TTITLE10=I Thought Abouth You
TTITLE11=P.S. I.Love You
TTITLE12=Stormy Weather
TTITLE13=Love For Sale
TTITLE14=I Get A Kick Out Of You
TTITLE15=Do Nothing Till You Hear From Me
TTITLE16=I Got A Ritht To Sing The Blues
TTITLE17=It Had To Be You
TTITLE18=Please Don't Talk About Me When I'm Gone
EXTD=YEAR: 2005
EXTT0=
EXTT1=
EXTT2=
EXTT3=
EXTT4=
EXTT5=
EXTT6=
EXTT7=
EXTT8=
EXTT9=
EXTT10=
EXTT11=
EXTT12=
EXTT13=
EXTT14=
EXTT15=
EXTT16=
EXTT17=
EXTT18=
PLAYORDER=
